<?xml version="1.0" standalone="no"?>
<!DOCTYPE svg PUBLIC "-//W3C//DTD SVG 20010904//EN"
 "http://www.w3.org/TR/2001/REC-SVG-20010904/DTD/svg10.dtd">
<svg version="1.0" xmlns="http://www.w3.org/2000/svg"
 width="30px" height="40px" viewBox="0 0 300.000000 126.000000"
 preserveAspectRatio="xMidYMid meet">

<g transform="translate(0.000000,126.000000) scale(0.100000,-0.100000)"
fill="#000000" stroke="none">
<path d="M703 1248 c-4 -7 -93 -177 -198 -378 l-190 -365 -90 -3 -90 -3 -62
-118 c-35 -65 -63 -121 -63 -125 0 -3 39 -6 86 -6 47 0 84 -3 82 -7 -2 -5 -27
-54 -56 -110 l-52 -103 152 0 153 0 58 110 58 110 190 0 c177 0 189 1 189 18
0 23 -19 178 -26 209 -4 21 -10 22 -109 25 l-104 3 90 165 c88 162 109 195
109 173 0 -16 100 -754 106 -786 l6 -27 142 0 142 0 -83 608 c-45 334 -83 610
-83 615 0 13 -348 8 -357 -5z"/>
<path d="M1468 981 c-111 -36 -194 -101 -265 -206 l-37 -56 36 -271 c41 -305
35 -291 146 -364 205 -137 489 -93 641 100 36 45 36 46 16 -57 -8 -43 -15 -83
-15 -88 0 -5 65 -9 148 -9 l147 0 34 225 c19 124 38 222 42 218 4 -4 52 -105
107 -223 l99 -215 139 -3 139 -2 73 457 c41 252 76 466 79 476 4 16 -7 17
-130 17 l-134 0 -37 -222 c-21 -123 -41 -233 -44 -245 -6 -18 -30 31 -112 220
l-106 242 -135 3 -135 3 -29 -158 c-40 -224 -38 -219 -59 -156 -49 146 -181
275 -325 317 -74 22 -210 20 -283 -3z m220 -266 c159 -67 174 -304 26 -404
-71 -49 -190 -36 -246 26 -61 67 -75 185 -33 270 52 104 156 148 253 108z"/>
</g>
</svg>
